<svg width="119" height="119" viewBox="0 0 119 119" fill="none" xmlns="http://www.w3.org/2000/svg">
<path fill-rule="evenodd" clip-rule="evenodd" d="M36.759 61.172C36.2066 64.0841 33.648 66.286 30.5752 66.286C27.099 66.286 24.281 63.468 24.281 59.9918C24.281 56.5156 27.099 53.6976 30.5752 53.6976C33.648 53.6976 36.2066 55.8996 36.759 58.8117L53.2678 58.8117V61.172H36.759ZM58.506 82.9194C55.5939 83.4718 53.392 86.0303 53.392 89.1031C53.392 92.5793 56.21 95.3974 59.6862 95.3974C63.1624 95.3974 65.9804 92.5793 65.9804 89.1031C65.9804 86.0303 63.7784 83.4718 60.8663 82.9194L60.8663 66.4106H58.506V82.9194ZM88.7973 53.6976C85.7244 53.6976 83.1659 55.8996 82.6135 58.8117H66.1047V61.172L82.6135 61.172C83.1659 64.0841 85.7244 66.286 88.7973 66.286C92.2735 66.286 95.0915 63.468 95.0915 59.9918C95.0915 56.5156 92.2735 53.6976 88.7973 53.6976ZM60.8665 37.0647C63.7786 36.5123 65.9805 33.9538 65.9805 30.881C65.9805 27.4048 63.1625 24.5868 59.6863 24.5868C56.2101 24.5868 53.3921 27.4048 53.3921 30.881C53.3921 33.9538 55.594 36.5123 58.5061 37.0647V53.5736L60.8665 53.5736V37.0647ZM42.6405 44.613C40.1907 46.2816 36.8245 46.0295 34.6517 43.8566C32.1937 41.3986 32.1937 37.4133 34.6517 34.9553C37.1098 32.4972 41.0951 32.4972 43.5531 34.9553C45.7259 37.1281 45.978 40.4943 44.3095 42.944L55.983 54.6176L54.314 56.2866L42.6405 44.613ZM42.6405 75.3688C40.1907 73.7002 36.8245 73.9524 34.6517 76.1252C32.1937 78.5832 32.1937 82.5685 34.6517 85.0265C37.1098 87.4846 41.0951 87.4846 43.5531 85.0265C45.7259 82.8537 45.978 79.4875 44.3095 77.0378L55.983 65.3643L54.314 63.6953L42.6405 75.3688ZM84.7224 76.1252C82.5496 73.9524 79.1834 73.7002 76.7336 75.3688L65.0601 63.6953L63.3911 65.3643L75.0646 77.0378C73.3961 79.4875 73.6482 82.8537 75.821 85.0265C78.2791 87.4846 82.2643 87.4846 84.7224 85.0265C87.1804 82.5685 87.1804 78.5832 84.7224 76.1252ZM76.7336 44.613C79.1834 46.2816 82.5496 46.0295 84.7224 43.8566C87.1804 41.3986 87.1804 37.4133 84.7224 34.9553C82.2643 32.4972 78.2791 32.4972 75.821 34.9553C73.6482 37.1281 73.3961 40.4943 75.0646 42.944L63.3911 54.6176L65.0601 56.2866L76.7336 44.613Z" fill="#A17FBC"/>
</svg>
